<mxfile host="Electron" agent="Mozilla/5.0 (X11; Linux x86_64) AppleWebKit/537.36 (KHTML, like Gecko) draw.io/24.7.8 Chrome/128.0.6613.36 Electron/32.0.1 Safari/537.36" version="24.7.8">
  <diagram name="Seite-1" id="ebmZOzoTeRSeWaesa0Kw">
    <mxGraphModel dx="1434" dy="839" grid="1" gridSize="10" guides="1" tooltips="1" connect="1" arrows="1" fold="1" page="1" pageScale="1" pageWidth="827" pageHeight="1169" math="0" shadow="0">
      <root>
        <mxCell id="0" />
        <mxCell id="1" parent="0" />
        <mxCell id="uOS60d6HIyOnWX3o4jyt-1" value="Web Frontend" style="ellipse;shape=cloud;whiteSpace=wrap;html=1;" parent="1" vertex="1">
          <mxGeometry x="30" y="270" width="190" height="120" as="geometry" />
        </mxCell>
        <mxCell id="uOS60d6HIyOnWX3o4jyt-2" value="BFF-Service" style="ellipse;shape=cloud;whiteSpace=wrap;html=1;" parent="1" vertex="1">
          <mxGeometry x="230" y="170" width="190" height="120" as="geometry" />
        </mxCell>
        <mxCell id="uOS60d6HIyOnWX3o4jyt-6" value="" style="group" parent="1" vertex="1" connectable="0">
          <mxGeometry x="500" y="70" width="210" height="140" as="geometry" />
        </mxCell>
        <mxCell id="uOS60d6HIyOnWX3o4jyt-3" value="Algorithmen" style="ellipse;shape=cloud;whiteSpace=wrap;html=1;" parent="uOS60d6HIyOnWX3o4jyt-6" vertex="1">
          <mxGeometry x="20" width="190" height="120" as="geometry" />
        </mxCell>
        <mxCell id="uOS60d6HIyOnWX3o4jyt-4" value="Algorithmen" style="ellipse;shape=cloud;whiteSpace=wrap;html=1;" parent="uOS60d6HIyOnWX3o4jyt-6" vertex="1">
          <mxGeometry x="10" y="10" width="190" height="120" as="geometry" />
        </mxCell>
        <mxCell id="uOS60d6HIyOnWX3o4jyt-5" value="Analyse-Services" style="ellipse;shape=cloud;whiteSpace=wrap;html=1;" parent="uOS60d6HIyOnWX3o4jyt-6" vertex="1">
          <mxGeometry y="20" width="190" height="120" as="geometry" />
        </mxCell>
        <mxCell id="uOS60d6HIyOnWX3o4jyt-7" value="Service-Discovery" style="ellipse;shape=cloud;whiteSpace=wrap;html=1;" parent="1" vertex="1">
          <mxGeometry x="160" width="190" height="120" as="geometry" />
        </mxCell>
        <mxCell id="uOS60d6HIyOnWX3o4jyt-8" style="rounded=0;orthogonalLoop=1;jettySize=auto;html=1;exitX=0.13;exitY=0.77;exitDx=0;exitDy=0;exitPerimeter=0;endArrow=none;endFill=0;entryX=0.875;entryY=0.5;entryDx=0;entryDy=0;entryPerimeter=0;" parent="1" source="uOS60d6HIyOnWX3o4jyt-5" target="uOS60d6HIyOnWX3o4jyt-2" edge="1">
          <mxGeometry relative="1" as="geometry">
            <mxPoint x="396" y="240" as="targetPoint" />
          </mxGeometry>
        </mxCell>
        <mxCell id="uOS60d6HIyOnWX3o4jyt-15" value="U" style="edgeLabel;html=1;align=center;verticalAlign=middle;resizable=0;points=[];" parent="uOS60d6HIyOnWX3o4jyt-8" vertex="1" connectable="0">
          <mxGeometry x="-0.2109" y="-2" relative="1" as="geometry">
            <mxPoint x="45" y="-7" as="offset" />
          </mxGeometry>
        </mxCell>
        <mxCell id="uOS60d6HIyOnWX3o4jyt-16" value="d" style="edgeLabel;html=1;align=center;verticalAlign=middle;resizable=0;points=[];" parent="uOS60d6HIyOnWX3o4jyt-8" vertex="1" connectable="0">
          <mxGeometry x="-0.0826" relative="1" as="geometry">
            <mxPoint x="-52" y="28" as="offset" />
          </mxGeometry>
        </mxCell>
        <mxCell id="uOS60d6HIyOnWX3o4jyt-9" style="rounded=0;orthogonalLoop=1;jettySize=auto;html=1;exitX=0.13;exitY=0.77;exitDx=0;exitDy=0;exitPerimeter=0;entryX=0.88;entryY=0.25;entryDx=0;entryDy=0;entryPerimeter=0;endArrow=none;endFill=0;" parent="1" source="uOS60d6HIyOnWX3o4jyt-2" target="uOS60d6HIyOnWX3o4jyt-1" edge="1">
          <mxGeometry relative="1" as="geometry">
            <mxPoint x="604" y="320" as="sourcePoint" />
            <mxPoint x="400" y="344" as="targetPoint" />
          </mxGeometry>
        </mxCell>
        <mxCell id="uOS60d6HIyOnWX3o4jyt-11" value="partnership" style="edgeLabel;html=1;align=center;verticalAlign=middle;resizable=0;points=[];" parent="uOS60d6HIyOnWX3o4jyt-9" vertex="1" connectable="0">
          <mxGeometry x="0.138" y="1" relative="1" as="geometry">
            <mxPoint x="8" y="-5" as="offset" />
          </mxGeometry>
        </mxCell>
        <mxCell id="uOS60d6HIyOnWX3o4jyt-10" style="rounded=0;orthogonalLoop=1;jettySize=auto;html=1;exitX=0.371;exitY=0.094;exitDx=0;exitDy=0;exitPerimeter=0;entryX=0.55;entryY=0.95;entryDx=0;entryDy=0;entryPerimeter=0;endArrow=none;endFill=0;" parent="1" source="uOS60d6HIyOnWX3o4jyt-2" target="uOS60d6HIyOnWX3o4jyt-7" edge="1">
          <mxGeometry relative="1" as="geometry" />
        </mxCell>
        <mxCell id="uOS60d6HIyOnWX3o4jyt-12" value="U" style="edgeLabel;html=1;align=center;verticalAlign=middle;resizable=0;points=[];" parent="uOS60d6HIyOnWX3o4jyt-10" vertex="1" connectable="0">
          <mxGeometry x="0.0025" y="-1" relative="1" as="geometry">
            <mxPoint x="-25" y="-22" as="offset" />
          </mxGeometry>
        </mxCell>
        <mxCell id="uOS60d6HIyOnWX3o4jyt-13" value="d" style="edgeLabel;html=1;align=center;verticalAlign=middle;resizable=0;points=[];" parent="uOS60d6HIyOnWX3o4jyt-10" vertex="1" connectable="0">
          <mxGeometry x="-0.2974" y="-2" relative="1" as="geometry">
            <mxPoint y="19" as="offset" />
          </mxGeometry>
        </mxCell>
      </root>
    </mxGraphModel>
  </diagram>
</mxfile>
